<svg width="20" height="20" viewBox="0 0 20 20" fill="none" xmlns="http://www.w3.org/2000/svg">
<path d="M17.4218 4.45277C16.5727 3.60578 15.4227 3.12948 14.2234 3.12802C13.0241 3.12655 11.8729 3.60005 11.0218 4.44496L9.99989 5.39418L8.97724 4.44184C8.12626 3.59325 6.97304 3.11746 5.77127 3.11915C4.5695 3.12083 3.41762 3.59985 2.56903 4.45082C1.72044 5.30179 1.24466 6.45501 1.24634 7.65678C1.24803 8.85855 1.72704 10.0104 2.57802 10.859L9.55849 17.9418C9.61664 18.0009 9.68596 18.0478 9.76241 18.0798C9.83886 18.1118 9.92092 18.1283 10.0038 18.1283C10.0867 18.1283 10.1687 18.1118 10.2452 18.0798C10.3216 18.0478 10.391 18.0009 10.4491 17.9418L17.4218 10.859C18.271 10.0093 18.748 8.85719 18.748 7.6559C18.748 6.4546 18.271 5.30247 17.4218 4.45277ZM16.535 9.9809L9.99989 16.609L3.46083 9.97465C2.84544 9.35926 2.49972 8.52462 2.49972 7.65434C2.49972 6.78405 2.84544 5.94941 3.46083 5.33402C4.07621 4.71864 4.91086 4.37292 5.78114 4.37292C6.65143 4.37292 7.48607 4.71864 8.10145 5.33402L8.11708 5.34965L9.57411 6.70512C9.68977 6.81275 9.8419 6.87258 9.99989 6.87258C10.1579 6.87258 10.31 6.81275 10.4257 6.70512L11.8827 5.34965L11.8983 5.33402C12.5141 4.71905 13.349 4.37389 14.2193 4.37448C15.0896 4.37507 15.924 4.72135 16.539 5.33715C17.1539 5.95295 17.4991 6.78782 17.4985 7.65811C17.4979 8.52839 17.1516 9.3628 16.5358 9.97777L16.535 9.9809Z" fill="#343330"/>
</svg>